HIERARCHY
ROOT newVegas:Hips
{
	OFFSET 0.000000 96.479958 0.000000
	CHANNELS 6 Xposition Yposition Zposition Xrotation Yrotation Zrotation
	JOINT newVegas:Pelvis
	{
		OFFSET 0.000000 0.000000 0.000000
		CHANNELS 3 Xrotation Yrotation Zrotation
		JOINT newVegas:LeftUpLeg
		{
			OFFSET 18.735201 -5.666702 -4.541200
			CHANNELS 3 Xrotation Yrotation Zrotation
			JOINT newVegas:LeftLeg
			{
				OFFSET -0.021200 -31.938179 0.493100
				CHANNELS 3 Xrotation Yrotation Zrotation
				JOINT newVegas:LeftFoot
				{
					OFFSET 0.021200 -31.938179 -4.336299
					CHANNELS 3 Xrotation Yrotation Zrotation
					JOINT newVegas:LeftToeBase
					{
						OFFSET 0.943001 -26.722000 15.023500
						CHANNELS 3 Xrotation Yrotation Zrotation
						End Site
						{
							OFFSET 0.000000 30.670183 0.000000
						}
					}
				}
				JOINT newVegas:Left_PantLeg
				{
					OFFSET 0.663870 -9.044666 -1.108900
					CHANNELS 3 Xrotation Yrotation Zrotation
					End Site
					{
						OFFSET 1.415995 20.635357 0.000000
					}
				}
			}
		}
		JOINT newVegas:RightUpLeg
		{
			OFFSET -18.735201 -5.666702 -4.541200
			CHANNELS 3 Xrotation Yrotation Zrotation
			JOINT newVegas:RightLeg
			{
				OFFSET 0.018946 -31.938133 0.493100
				CHANNELS 3 Xrotation Yrotation Zrotation
				JOINT newVegas:RightFoot
				{
					OFFSET -0.018946 -31.938126 -4.336299
					CHANNELS 3 Xrotation Yrotation Zrotation
					JOINT newVegas:RightToeBase
					{
						OFFSET -0.943001 -26.722004 15.023500
						CHANNELS 3 Xrotation Yrotation Zrotation
						End Site
						{
							OFFSET 0.000000 30.670187 0.000000
						}
					}
				}
				JOINT newVegas:Right_PantLeg
				{
					OFFSET -0.661674 -9.044716 -1.108900
					CHANNELS 3 Xrotation Yrotation Zrotation
					End Site
					{
						OFFSET -1.415958 20.635269 0.000000
					}
				}
			}
		}
	}
	JOINT newVegas:Spine
	{
		OFFSET 0.000000 10.199997 -0.299500
		CHANNELS 3 Xrotation Yrotation Zrotation
		JOINT newVegas:Spine1
		{
			OFFSET 0.000000 11.900002 -1.516600
			CHANNELS 3 Xrotation Yrotation Zrotation
			JOINT newVegas:Spine2
			{
				OFFSET 0.000000 13.600006 -2.842500
				CHANNELS 3 Xrotation Yrotation Zrotation
				JOINT newVegas:Neck
				{
					OFFSET 0.000000 9.624100 -2.890100
					CHANNELS 3 Xrotation Yrotation Zrotation
					JOINT newVegas:Head
					{
						OFFSET 0.000000 14.068802 -1.351900
						CHANNELS 3 Xrotation Yrotation Zrotation
						JOINT newVegas:Hair_Back
						{
							OFFSET 0.000000 3.231903 -17.524799
							CHANNELS 3 Xrotation Yrotation Zrotation
							End Site
							{
								OFFSET 0.000000 19.849884 0.000000
							}
						}
						JOINT newVegas:Hair_Front
						{
							OFFSET 0.000000 31.260406 4.573800
							CHANNELS 3 Xrotation Yrotation Zrotation
							JOINT newVegas:Hair_Front1
							{
								OFFSET 0.000000 2.284103 11.993300
								CHANNELS 3 Xrotation Yrotation Zrotation
								JOINT newVegas:Hair_Front2
								{
									OFFSET 0.000000 2.284103 11.993300
									CHANNELS 3 Xrotation Yrotation Zrotation
									End Site
									{
										OFFSET 0.000000 12.208862 0.000000
									}
								}
							}
						}
						JOINT newVegas:Jowel
						{
							OFFSET 0.000000 -7.458206 6.864100
							CHANNELS 3 Xrotation Yrotation Zrotation
							End Site
							{
								OFFSET 0.000000 19.849884 0.000000
							}
						}
					}
				}
				JOINT newVegas:LeftShoulder
				{
					OFFSET 15.263000 10.923401 -0.547700
					CHANNELS 3 Xrotation Yrotation Zrotation
					JOINT newVegas:LeftArm
					{
						OFFSET 25.438599 -2.830597 -13.032500
						CHANNELS 3 Xrotation Yrotation Zrotation
						JOINT newVegas:LeftForeArm
						{
							OFFSET 29.960503 0.000000 0.000000
							CHANNELS 3 Xrotation Yrotation Zrotation
							JOINT newVegas:LeftHand
							{
								OFFSET 27.849251 0.000000 0.000000
								CHANNELS 3 Xrotation Yrotation Zrotation
								JOINT newVegas:LeftHandThumb1
								{
									OFFSET 4.487587 -3.305161 6.305391
									CHANNELS 3 Xrotation Yrotation Zrotation
									JOINT newVegas:LeftHandThumb2
									{
										OFFSET 5.480453 -3.164139 3.164143
										CHANNELS 3 Xrotation Yrotation Zrotation
										JOINT newVegas:LeftHandThumb3
										{
											OFFSET 5.159721 -2.978973 2.978967
											CHANNELS 3 Xrotation Yrotation Zrotation
											End Site
											{
												OFFSET 2.494507 5.926697 1.738678
											}
										}
									}
								}
								JOINT newVegas:LeftHandIndex1
								{
									OFFSET 18.578728 -0.527832 5.208049
									CHANNELS 3 Xrotation Yrotation Zrotation
									JOINT newVegas:LeftHandIndex2
									{
										OFFSET 3.192009 0.000000 0.000000
										CHANNELS 3 Xrotation Yrotation Zrotation
										JOINT newVegas:LeftHandIndex3
										{
											OFFSET 3.835129 0.000000 0.000000
											CHANNELS 3 Xrotation Yrotation Zrotation
											End Site
											{
												OFFSET -0.034599 3.816971 0.371180
											}
										}
									}
								}
								JOINT newVegas:LeftHandMiddle1
								{
									OFFSET 18.476105 0.000000 0.000000
									CHANNELS 3 Xrotation Yrotation Zrotation
									JOINT newVegas:LeftHandMiddle2
									{
										OFFSET 3.324875 0.000000 0.000000
										CHANNELS 3 Xrotation Yrotation Zrotation
										JOINT newVegas:LeftHandMiddle3
										{
											OFFSET 4.596550 0.000000 0.000000
											CHANNELS 3 Xrotation Yrotation Zrotation
											End Site
											{
												OFFSET 0.057701 4.578827 0.399218
											}
										}
									}
								}
								JOINT newVegas:LeftHandRing1
								{
									OFFSET 17.732719 0.121887 -4.201567
									CHANNELS 3 Xrotation Yrotation Zrotation
									JOINT newVegas:LeftHandRing2
									{
										OFFSET 2.733170 0.000000 0.000000
										CHANNELS 3 Xrotation Yrotation Zrotation
										JOINT newVegas:LeftHandRing3
										{
											OFFSET 3.178268 0.000000 0.000000
											CHANNELS 3 Xrotation Yrotation Zrotation
											End Site
											{
												OFFSET 0.119102 3.170624 0.185394
											}
										}
									}
								}
								JOINT newVegas:LeftHandPinky1
								{
									OFFSET 15.989624 -0.606689 -7.535461
									CHANNELS 3 Xrotation Yrotation Zrotation
									JOINT newVegas:LeftHandPinky2
									{
										OFFSET 2.538986 0.000000 0.000000
										CHANNELS 3 Xrotation Yrotation Zrotation
										JOINT newVegas:LeftHandPinky3
										{
											OFFSET 2.593102 0.000000 0.000000
											CHANNELS 3 Xrotation Yrotation Zrotation
											End Site
											{
												OFFSET -0.150902 2.584198 0.152708
											}
										}
									}
								}
							}
							JOINT newVegas:Left_Sleeve
							{
								OFFSET 0.267448 -0.649796 0.577675
								CHANNELS 3 Xrotation Yrotation Zrotation
								End Site
								{
									OFFSET 0.000000 15.991241 0.000000
								}
							}
							JOINT newVegas:Left_CapeC
							{
								OFFSET 15.715958 -8.608795 -6.935905
								CHANNELS 3 Xrotation Yrotation Zrotation
								JOINT newVegas:Left_CapeC1
								{
									OFFSET 0.000000 -8.688499 0.000000
									CHANNELS 3 Xrotation Yrotation Zrotation
									End Site
									{
										OFFSET 0.000000 8.688499 0.000000
									}
								}
							}
						}
						JOINT newVegas:Left_CapeB
						{
							OFFSET 26.118385 -8.608795 -7.079235
							CHANNELS 3 Xrotation Yrotation Zrotation
							JOINT newVegas:Left_CapeB1
							{
								OFFSET 0.000000 -8.688499 0.000000
								CHANNELS 3 Xrotation Yrotation Zrotation
								End Site
								{
									OFFSET 0.000000 8.688499 0.000000
								}
							}
						}
						JOINT newVegas:Left_CapeA
						{
							OFFSET 5.115639 -8.608795 -10.395809
							CHANNELS 3 Xrotation Yrotation Zrotation
							JOINT newVegas:Left_CapeA1
							{
								OFFSET 0.000000 -8.688499 0.000000
								CHANNELS 3 Xrotation Yrotation Zrotation
								End Site
								{
									OFFSET 0.000000 8.688499 0.000000
								}
							}
						}
					}
				}
				JOINT newVegas:RightShoulder
				{
					OFFSET -15.263000 10.923401 -0.547700
					CHANNELS 3 Xrotation Yrotation Zrotation
					JOINT newVegas:RightArm
					{
						OFFSET -25.438599 -2.830597 -13.032500
						CHANNELS 3 Xrotation Yrotation Zrotation
						JOINT newVegas:RightForeArm
						{
							OFFSET -29.960503 0.000000 0.000000
							CHANNELS 3 Xrotation Yrotation Zrotation
							JOINT newVegas:RightHand
							{
								OFFSET -27.849251 0.000000 0.000000
								CHANNELS 3 Xrotation Yrotation Zrotation
								JOINT newVegas:RightHandThumb1
								{
									OFFSET -4.487587 -3.305161 6.305391
									CHANNELS 3 Xrotation Yrotation Zrotation
									JOINT newVegas:RightHandThumb2
									{
										OFFSET -5.480453 -3.164139 3.164143
										CHANNELS 3 Xrotation Yrotation Zrotation
										JOINT newVegas:RightHandThumb3
										{
											OFFSET -5.159721 -2.978973 2.978967
											CHANNELS 3 Xrotation Yrotation Zrotation
											End Site
											{
												OFFSET -2.494507 5.926697 1.738678
											}
										}
									}
								}
								JOINT newVegas:RightHandIndex1
								{
									OFFSET -18.578728 -0.527832 5.208049
									CHANNELS 3 Xrotation Yrotation Zrotation
									JOINT newVegas:RightHandIndex2
									{
										OFFSET -3.192009 0.000000 0.000000
										CHANNELS 3 Xrotation Yrotation Zrotation
										JOINT newVegas:RightHandIndex3
										{
											OFFSET -3.835129 0.000000 0.000000
											CHANNELS 3 Xrotation Yrotation Zrotation
											End Site
											{
												OFFSET 0.034599 3.816971 0.371180
											}
										}
									}
								}
								JOINT newVegas:RightHandMiddle1
								{
									OFFSET -18.476105 0.000000 0.000000
									CHANNELS 3 Xrotation Yrotation Zrotation
									JOINT newVegas:RightHandMiddle2
									{
										OFFSET -3.324875 0.000000 0.000000
										CHANNELS 3 Xrotation Yrotation Zrotation
										JOINT newVegas:RightHandMiddle3
										{
											OFFSET -4.596550 0.000000 0.000000
											CHANNELS 3 Xrotation Yrotation Zrotation
											End Site
											{
												OFFSET -0.057701 4.578827 0.399218
											}
										}
									}
								}
								JOINT newVegas:RightHandRing1
								{
									OFFSET -17.732719 0.121887 -4.201567
									CHANNELS 3 Xrotation Yrotation Zrotation
									JOINT newVegas:RightHandRing2
									{
										OFFSET -2.733170 0.000000 0.000000
										CHANNELS 3 Xrotation Yrotation Zrotation
										JOINT newVegas:RightHandRing3
										{
											OFFSET -3.178268 0.000000 0.000000
											CHANNELS 3 Xrotation Yrotation Zrotation
											End Site
											{
												OFFSET -0.119102 3.170624 0.185394
											}
										}
									}
								}
								JOINT newVegas:RightHandPinky1
								{
									OFFSET -15.989624 -0.606689 -7.535461
									CHANNELS 3 Xrotation Yrotation Zrotation
									JOINT newVegas:RightHandPinky2
									{
										OFFSET -2.538986 0.000000 0.000000
										CHANNELS 3 Xrotation Yrotation Zrotation
										JOINT newVegas:RightHandPinky3
										{
											OFFSET -2.593102 0.000000 0.000000
											CHANNELS 3 Xrotation Yrotation Zrotation
											End Site
											{
												OFFSET 0.150902 2.584198 0.152708
											}
										}
									}
								}
							}
							JOINT newVegas:Right_CapeC
							{
								OFFSET -15.715958 -8.608795 -6.935905
								CHANNELS 3 Xrotation Yrotation Zrotation
								JOINT newVegas:Right_CapeC1
								{
									OFFSET 0.000000 -8.688499 0.000000
									CHANNELS 3 Xrotation Yrotation Zrotation
									End Site
									{
										OFFSET 0.000000 8.688499 0.000000
									}
								}
							}
							JOINT newVegas:Right_Sleeve
							{
								OFFSET -0.267448 -0.649994 0.577675
								CHANNELS 3 Xrotation Yrotation Zrotation
								End Site
								{
									OFFSET 0.000000 15.991302 0.000000
								}
							}
						}
						JOINT newVegas:Right_CapeA
						{
							OFFSET -5.115540 -8.608795 -10.395824
							CHANNELS 3 Xrotation Yrotation Zrotation
							JOINT newVegas:Right_CapeA1
							{
								OFFSET 0.000000 -8.688499 0.000000
								CHANNELS 3 Xrotation Yrotation Zrotation
								End Site
								{
									OFFSET 0.000000 8.688499 0.000000
								}
							}
						}
						JOINT newVegas:Right_CapeB
						{
							OFFSET -26.118187 -8.608795 -7.079266
							CHANNELS 3 Xrotation Yrotation Zrotation
							JOINT newVegas:Right_CapeB1
							{
								OFFSET 0.000000 -8.688499 0.000000
								CHANNELS 3 Xrotation Yrotation Zrotation
								End Site
								{
									OFFSET 0.000000 8.688499 0.000000
								}
							}
						}
					}
				}
				JOINT newVegas:Left_Collar
				{
					OFFSET 18.625099 8.655502 8.828100
					CHANNELS 3 Xrotation Yrotation Zrotation
					JOINT newVegas:Left_Collar1
					{
						OFFSET 14.783401 10.540405 -1.259500
						CHANNELS 3 Xrotation Yrotation Zrotation
						End Site
						{
							OFFSET 0.000000 18.199875 0.000000
						}
					}
				}
				JOINT newVegas:Collar_Back
				{
					OFFSET 0.000000 15.630707 -20.132601
					CHANNELS 3 Xrotation Yrotation Zrotation
					End Site
					{
						OFFSET 0.000000 22.523010 0.000000
					}
				}
				JOINT newVegas:Left_Peck
				{
					OFFSET 17.239599 -5.132599 25.482599
					CHANNELS 3 Xrotation Yrotation Zrotation
					End Site
					{
						OFFSET 0.000000 22.523010 0.000000
					}
				}
				JOINT newVegas:Right_Peck
				{
					OFFSET -17.239599 -5.132202 25.482599
					CHANNELS 3 Xrotation Yrotation Zrotation
					End Site
					{
						OFFSET 0.000000 22.523010 0.000000
					}
				}
				JOINT newVegas:Right_Collar
				{
					OFFSET -18.625099 8.655792 8.828100
					CHANNELS 3 Xrotation Yrotation Zrotation
					JOINT newVegas:Right_Collar1
					{
						OFFSET -14.783401 10.539993 -1.259500
						CHANNELS 3 Xrotation Yrotation Zrotation
						End Site
						{
							OFFSET 0.000000 18.199631 0.000000
						}
					}
				}
			}
		}
		JOINT newVegas:Belly
		{
			OFFSET 0.000000 -6.540398 9.014299
			CHANNELS 3 Xrotation Yrotation Zrotation
			End Site
			{
				OFFSET 0.000000 11.566666 0.000000
			}
		}
	}
	JOINT newVegas:ElvisFacialAnim_Joint
	{
		OFFSET 1.000000 -95.330101 -8.825800
		CHANNELS 3 Xrotation Yrotation Zrotation
		End Site
		{
			OFFSET 0.000000 35.315800 0.000000
		}
	}
}
MOTION
Frames: 4
Frame Time: 0.033333
0.492651 42.999474 2.968594 -14.411102 -1.999745 12.168402 -0.000000 0.000000 0.000000 -108.997552 12.790451 23.151956 129.789522 -0.519973 -2.760478 -8.499779 -0.018375 13.650788 0.000000 -0.000000 -0.000000 0.000000 0.000000 0.000001 -23.606100 53.491047 -47.350792 160.154016 54.244570 11.908624 -64.135750 2.918610 -1.053089 0.000000 0.000001 -0.000000 0.000000 0.000000 0.000001 9.162626 -2.805126 -0.893185 18.179097 -6.289338 -3.041878 18.179083 -6.289333 -3.041880 -1.876588 1.007286 -0.746765 -1.876604 1.007287 -0.746769 -0.000000 0.000001 -0.000000 -1.876597 1.007291 -0.746768 -1.876557 1.007290 -0.746768 -0.000000 -0.000000 0.000000 -0.000000 0.000001 -0.000000 -3.457537 -13.935153 -5.823541 -15.475542 -16.705454 -56.988954 8.005930 -92.941820 8.006969 64.822634 -6.812341 -36.997509 -4.482765 9.661396 19.814848 2.275287 6.589329 2.293077 0.000003 0.000001 -0.000008 1.059960 7.100094 -10.765196 0.136575 0.898896 -25.992616 0.000003 -0.000001 0.000000 1.335840 7.421538 -25.669965 -0.562023 -2.241628 -23.090916 -0.000004 -0.000000 -0.000000 -0.026985 8.125024 -31.378883 -0.772809 -3.677443 -27.573571 -0.000003 -0.000001 0.000000 -1.483700 7.962185 -26.751728 -1.837348 -7.884750 -38.553686 -0.000001 0.000000 0.000001 0.000000 0.000000 0.000002 0.000000 0.000000 0.000002 0.000000 0.000000 0.000002 -0.000001 0.000000 -0.000000 -0.000001 0.000000 0.000000 -0.000001 0.000000 -0.000000 -0.000002 0.000000 -0.000000 -3.442796 13.907516 5.670584 -2.871011 35.016327 58.348462 0.253744 53.076116 0.185875 35.173029 13.834462 -26.973430 3.837638 -8.280729 7.738902 2.089649 -6.080043 -2.749591 0.000002 -0.000003 -0.000003 1.699871 -7.103858 38.190497 0.131167 -1.149305 17.690152 -0.000000 0.000001 0.000000 0.190762 -7.722967 28.946311 -0.221733 0.910546 8.225129 -0.000001 -0.000002 0.000000 1.661911 -8.215506 22.957671 -0.546304 3.375600 18.806137 0.000000 -0.000001 0.000000 2.277874 -9.121683 11.268219 -1.078232 7.469323 21.982522 -0.000001 -0.000002 0.000000 0.000000 0.000001 -0.000001 0.000001 -0.000002 -0.000001 0.000000 0.000001 -0.000000 0.000002 0.000000 -0.000000 0.000002 0.000000 -0.000000 0.000002 0.000000 -0.000000 0.000002 -0.000000 -0.000000 0.000002 -0.000000 0.000001 0.000002 -0.000000 0.000001 0.000002 -0.000000 0.000001 0.000002 -0.000000 0.000001 0.000002 -0.000000 0.000001 0.000002 -0.000000 0.000001 0.000002 -0.000000 0.000001 -0.000000 0.000000 -0.000001 -0.000000 0.000000 0.000000 
0.513880 42.985451 2.953030 -14.473468 -2.012233 12.143194 -0.000001 0.000000 -0.000000 -109.008255 12.814923 23.158453 129.808947 -0.494949 -2.756856 -8.469596 -0.002407 13.703570 -0.000000 -0.000000 -0.000000 -0.000000 -0.000001 0.000002 -23.311311 53.934719 -47.846366 160.026975 54.592148 12.060327 -63.777288 2.912560 -0.958200 0.000001 -0.000001 -0.000000 0.000000 -0.000000 0.000000 9.172552 -2.806538 -0.897632 18.199324 -6.293963 -3.041516 18.199328 -6.293962 -3.041517 -1.880670 1.006623 -0.747156 -1.880672 1.006624 -0.747159 -0.000001 0.000000 -0.000001 -1.880645 1.006622 -0.747159 -1.880674 1.006626 -0.747157 -0.000000 -0.000000 0.000000 -0.000001 0.000000 -0.000000 -3.457540 -13.935152 -5.823541 -15.580922 -16.615648 -57.125462 8.009989 -92.931001 8.011212 64.860385 -6.788085 -37.063625 -4.482767 9.661386 19.814848 2.275528 6.589688 2.293051 -0.000001 -0.000001 -0.000001 1.089756 7.089588 -10.858534 0.136579 0.898915 -25.992625 -0.000002 -0.000000 0.000001 1.344465 7.414812 -25.687788 -0.562026 -2.241609 -23.090930 0.000002 0.000000 0.000000 -0.027981 8.125931 -31.413464 -0.773225 -3.677016 -27.583200 -0.000002 -0.000001 0.000001 -1.475212 7.956706 -26.825170 -1.837353 -7.884739 -38.553699 0.000003 -0.000003 -0.000004 0.000001 0.000000 -0.000003 0.000001 0.000000 -0.000003 0.000000 -0.000000 -0.000003 0.000001 0.000001 0.000001 0.000001 0.000000 0.000000 0.000001 0.000001 0.000001 -0.000000 0.000001 0.000000 -3.442798 13.907517 5.670581 -2.929724 35.028212 58.358933 0.254083 53.018975 0.185885 35.115628 13.901770 -26.974526 3.842423 -8.258906 7.694943 2.122149 -6.141926 -2.751693 0.000001 0.000001 0.000001 1.712621 -7.108073 38.178049 0.130784 -1.148654 17.671492 -0.000000 -0.000000 -0.000000 0.188472 -7.721811 28.932077 -0.221741 0.910544 8.225136 -0.000000 -0.000001 0.000003 1.655819 -8.206737 22.975764 -0.544533 3.375395 18.781905 0.000001 0.000001 0.000001 2.281355 -9.121233 11.324335 -1.082426 7.473843 22.015148 -0.000000 -0.000000 0.000001 -0.000003 -0.000002 0.000003 -0.000002 -0.000002 0.000003 -0.000003 -0.000002 0.000003 -0.000002 0.000000 -0.000000 -0.000002 0.000000 -0.000000 -0.000002 0.000000 -0.000000 -0.000002 -0.000000 -0.000000 -0.000001 0.000001 -0.000001 -0.000001 0.000001 -0.000001 -0.000001 0.000001 -0.000001 -0.000001 0.000001 -0.000001 -0.000001 0.000001 -0.000001 -0.000001 0.000001 -0.000001 -0.000001 0.000001 -0.000001 0.000000 0.000000 -0.000000 -0.000001 0.000000 -0.000000 
0.533434 42.980339 2.938637 -14.518342 -2.033664 12.131656 0.000002 0.000000 0.000000 -108.994649 12.845085 23.151292 129.814439 -0.476316 -2.754211 -8.463903 0.026253 13.731409 0.000000 0.000000 -0.000000 0.000001 0.000000 -0.000000 -23.214952 54.420847 -48.206946 159.932281 54.832485 12.167622 -63.351418 2.846449 -0.799337 0.000001 -0.000001 -0.000001 0.000000 -0.000000 -0.000001 9.181152 -2.806384 -0.901750 18.217047 -6.296209 -3.039645 18.217038 -6.296207 -3.039644 -1.882580 1.006322 -0.747343 -1.882595 1.006323 -0.747341 -0.000001 -0.000000 0.000000 -1.882574 1.006318 -0.747342 -1.882631 1.006326 -0.747342 -0.000000 0.000000 -0.000000 -0.000001 -0.000000 0.000001 -3.457536 -13.935155 -5.823540 -15.655133 -16.596685 -57.170142 8.061479 -92.906152 8.062933 64.861778 -6.690884 -37.100430 -4.482768 9.661401 19.814860 2.280215 6.596785 2.292566 -0.000002 -0.000003 -0.000001 1.086195 7.091539 -10.899604 0.136049 0.898405 -25.959539 0.000000 0.000000 0.000001 1.328142 7.407706 -25.678755 -0.562016 -2.241642 -23.090918 0.000001 -0.000001 0.000000 -0.015890 8.117446 -31.457379 -0.773171 -3.677066 -27.582017 -0.000001 -0.000001 -0.000001 -1.473686 7.953511 -26.851132 -1.837362 -7.884734 -38.553672 0.000001 -0.000003 0.000002 -0.000000 -0.000001 -0.000003 -0.000000 -0.000001 -0.000003 -0.000000 -0.000001 -0.000003 0.000000 0.000001 -0.000000 0.000001 0.000001 0.000000 0.000000 0.000001 -0.000000 -0.000001 0.000001 -0.000000 -3.442797 13.907518 5.670581 -2.983382 35.042897 58.364561 0.254290 52.945799 0.186305 35.099946 13.978297 -26.969523 3.841528 -8.218061 7.644826 2.120476 -6.138722 -2.751586 0.000002 -0.000003 -0.000004 1.723709 -7.111935 38.167264 0.130136 -1.147523 17.639262 0.000000 -0.000001 -0.000000 0.196219 -7.733402 28.920886 -0.221735 0.910522 8.225137 0.000000 -0.000001 0.000000 1.652498 -8.201891 22.985950 -0.544830 3.375422 18.785971 -0.000000 0.000001 -0.000002 2.275809 -9.106357 11.356037 -1.088710 7.480670 22.064206 0.000002 0.000005 0.000001 -0.000001 -0.000002 0.000003 -0.000002 -0.000003 0.000001 -0.000001 -0.000002 0.000003 0.000003 0.000001 0.000001 0.000003 0.000000 0.000001 0.000003 0.000001 0.000001 0.000003 -0.000000 0.000001 0.000002 -0.000000 -0.000000 0.000002 -0.000000 -0.000000 0.000002 -0.000000 -0.000000 0.000002 -0.000000 -0.000000 0.000002 -0.000000 -0.000000 0.000002 -0.000000 -0.000000 0.000002 -0.000000 -0.000000 -0.000000 -0.000000 0.000001 0.000002 0.000000 0.000000 
0.558714 42.971260 2.926495 -14.537853 -2.056574 12.121883 -0.000000 0.000000 0.000000 -109.011916 12.887344 23.149215 129.824561 -0.451878 -2.750622 -8.463962 0.058922 13.768117 0.000000 -0.000001 -0.000000 0.000001 0.000000 -0.000000 -23.040006 55.053425 -48.752890 159.793191 55.181457 12.325663 -62.815529 2.781875 -0.606174 0.000001 -0.000000 -0.000001 -0.000000 -0.000000 -0.000003 9.186855 -2.801561 -0.906378 18.229368 -6.290307 -3.036300 18.229367 -6.290306 -3.036301 -1.883748 1.007364 -0.749325 -1.883756 1.007370 -0.749328 -0.000001 0.000000 -0.000000 -1.883764 1.007370 -0.749329 -1.883719 1.007374 -0.749329 -0.000001 0.000000 -0.000000 -0.000001 0.000000 0.000000 -3.457537 -13.935153 -5.823541 -15.732735 -16.580769 -57.237996 8.148300 -92.868655 8.149753 64.854477 -6.595090 -37.048572 -4.476682 9.680075 19.818636 2.271764 6.584005 2.293404 0.000002 -0.000002 -0.000005 1.078051 7.092710 -10.908334 0.135517 0.897889 -25.926983 0.000000 0.000001 0.000000 1.301093 7.404582 -25.652854 -0.561689 -2.241367 -23.097007 -0.000002 0.000000 -0.000000 0.013399 8.122078 -31.491673 -0.773457 -3.676767 -27.588999 -0.000002 -0.000002 0.000001 -1.494067 7.941882 -26.836020 -1.837367 -7.884744 -38.553655 0.000001 -0.000003 -0.000001 0.000001 0.000000 -0.000002 0.000001 0.000000 -0.000002 0.000001 -0.000001 -0.000002 -0.000003 -0.000001 -0.000000 -0.000002 0.000000 -0.000001 -0.000003 -0.000001 -0.000000 -0.000004 0.000000 -0.000001 -3.442795 13.907518 5.670583 -3.015059 35.059815 58.368700 0.254883 52.888081 0.186238 35.062349 14.034082 -26.975375 3.843058 -8.190823 7.604645 2.125024 -6.147400 -2.751875 0.000002 0.000004 -0.000002 1.719179 -7.109388 38.184801 0.129636 -1.146728 17.616241 0.000000 0.000001 -0.000000 0.198906 -7.734792 28.937288 -0.221346 0.911043 8.201337 0.000001 -0.000001 0.000002 1.652413 -8.201321 22.990292 -0.543627 3.375234 18.769392 0.000001 -0.000001 0.000001 2.269943 -9.094913 11.356183 -1.091968 7.484181 22.089513 -0.000001 -0.000002 -0.000001 -0.000001 -0.000001 0.000001 -0.000002 -0.000004 0.000000 -0.000001 -0.000001 0.000002 0.000003 0.000000 0.000001 0.000003 -0.000001 0.000001 0.000003 0.000000 0.000001 0.000003 -0.000001 0.000001 -0.000000 0.000000 0.000000 -0.000000 0.000000 0.000000 -0.000000 0.000000 0.000000 -0.000000 0.000000 0.000000 -0.000000 0.000000 0.000000 -0.000000 0.000000 0.000000 -0.000000 0.000000 0.000000 0.000000 -0.000000 -0.000001 -0.000000 0.000000 0.000000 
